<svg xmlns="http://www.w3.org/2000/svg" xmlns:xlink="http://www.w3.org/1999/xlink" viewBox="0 0 910.2 227"><defs><style>.cls-1,.cls-2{fill:#fff;}.cls-2,.cls-3{stroke:#fff;stroke-miterlimit:10;stroke-width:4px;}.cls-3{fill:url(#New_Gradient_Swatch_copy_3);}</style><linearGradient id="New_Gradient_Swatch_copy_3" x1="-52.28" y1="10.49" x2="-15.79" y2="217.45" gradientTransform="matrix(-1, 0, 0, 1, 27.09, -13.73)" gradientUnits="userSpaceOnUse"><stop offset="0.01" stop-color="#fdcb29"/><stop offset="0.13" stop-color="#fcc028"/><stop offset="0.24" stop-color="#ee6935"/><stop offset="0.43" stop-color="#d33443"/><stop offset="0.46" stop-color="#bb4844"/><stop offset="0.51" stop-color="#8d6f46"/><stop offset="0.56" stop-color="#688d48"/><stop offset="0.61" stop-color="#4ea349"/><stop offset="0.66" stop-color="#3fb04a"/><stop offset="0.69" stop-color="#39b54a"/><stop offset="0.76" stop-color="#36976e"/><stop offset="0.87" stop-color="#2f5eb3"/><stop offset="1" stop-color="#2b91cc"/></linearGradient></defs><g id="Layer_2" data-name="Layer 2"><g id="Layer_1-2" data-name="Layer 1"><path class="cls-1" d="M270.2,0H229.5L177.6,131.1l23.3,60.7L212.8,160h72.4l14.1,37.9h48.6ZM226.3,123.8l9.7-26c1.5-4.7,3.1-9.3,4.8-13.7s3.3-8.9,4.7-13.3,2.5-7.9,3.7-12c1.3,4,2.5,7.9,3.8,12s3,9.5,4.5,14,3,8.8,4.5,12.7l9.8,26.3Z"/><path class="cls-1" d="M401.6,194.7a32.4,32.4,0,0,1-18.1-5.2,37.7,37.7,0,0,1-12.8-14.3,43.9,43.9,0,0,1-4.7-20.5,42.1,42.1,0,0,1,4.9-20.6,36.8,36.8,0,0,1,13-14.1,33.6,33.6,0,0,1,18.3-5.1,37,37,0,0,1,11.2,1.7,32.1,32.1,0,0,1,9.1,5,29.4,29.4,0,0,1,6.8,7.3,27.1,27.1,0,0,1,3.8,9.1l-3.3-1.7.5-19.8h11v76.7H430.1V174.4l3-1.9a24,24,0,0,1-4,8.4,37.2,37.2,0,0,1-7.1,7.2,34,34,0,0,1-9.5,4.8A32.8,32.8,0,0,1,401.6,194.7Zm2.5-10.6a25.6,25.6,0,0,0,13.7-3.7,25.9,25.9,0,0,0,9.4-10.5,32.4,32.4,0,0,0,3.5-15.2,32,32,0,0,0-3.5-15.1,27.3,27.3,0,0,0-9.4-10.5,26.8,26.8,0,0,0-27.5,0,28.1,28.1,0,0,0-9.4,10.5,32,32,0,0,0-3.4,15.1,32.6,32.6,0,0,0,3.4,15.1,26.5,26.5,0,0,0,9.4,10.5A25.5,25.5,0,0,0,404.1,184.1Z"/><path class="cls-1" d="M462.7,193.2V116.5h10.9l.5,16-1.8.7a21.8,21.8,0,0,1,5.7-9.1,38.4,38.4,0,0,1,10.2-6.7,31.1,31.1,0,0,1,12.3-2.5c5.7,0,10.5,1.1,14.3,3.4a21.1,21.1,0,0,1,8.7,10.4c1.9,4.7,2.9,10.7,2.9,17.9v46.6H515.2v-46c0-5.1-.6-9.3-2-12.6a13.6,13.6,0,0,0-6.1-7.2,18.7,18.7,0,0,0-10.1-2.2,24,24,0,0,0-9.3,1.7,21.1,21.1,0,0,0-7.3,4.6,21.5,21.5,0,0,0-4.9,6.7,20.9,20.9,0,0,0-1.7,8.3v46.7H462.7Z"/><path class="cls-1" d="M577.4,194.7a32.4,32.4,0,0,1-18.1-5.2,37.7,37.7,0,0,1-12.8-14.3,43.9,43.9,0,0,1-4.7-20.5,42.1,42.1,0,0,1,4.9-20.6,37.6,37.6,0,0,1,13-14.1,33.6,33.6,0,0,1,18.3-5.1,37,37,0,0,1,11.2,1.7,32.7,32.7,0,0,1,9.2,5,31,31,0,0,1,6.7,7.3,27.1,27.1,0,0,1,3.8,9.1l-3.3-1.7.5-19.8h11v76.7H605.9V174.4l3-1.9a22.4,22.4,0,0,1-4,8.4,32.4,32.4,0,0,1-16.5,12A33.8,33.8,0,0,1,577.4,194.7Zm2.5-10.6a25.4,25.4,0,0,0,13.7-3.7,26.2,26.2,0,0,0,9.5-10.5,32.4,32.4,0,0,0,3.4-15.2,32,32,0,0,0-3.4-15.1,27.5,27.5,0,0,0-9.5-10.5,25.4,25.4,0,0,0-13.7-3.8,24.9,24.9,0,0,0-13.7,3.8,28.4,28.4,0,0,0-9.5,10.5,32,32,0,0,0-3.4,15.1,32.6,32.6,0,0,0,3.4,15.1,26.5,26.5,0,0,0,9.4,10.5A25.5,25.5,0,0,0,579.9,184.1Z"/><path class="cls-1" d="M638.8,193.2V84.4h11.1V193.2Z"/><path class="cls-1" d="M682.4,227l14.8-36.1,1,10.4-38.5-84.8h12.5l26.3,58.8a59.9,59.9,0,0,1,2.4,5.5c.8,2.1,1.5,4.2,2.2,6.3l-4.1-.5,2-5.1,1.8-5.2,23.1-59.8h12.6l-31,76.7L694.3,227Z"/><path class="cls-1" d="M773.8,194.7a39.6,39.6,0,0,1-17.6-3.7,32,32,0,0,1-12.4-9.7l7.8-6.7a27,27,0,0,0,10.1,7.7,30.2,30.2,0,0,0,13,2.7,27.1,27.1,0,0,0,6.6-.8,18.5,18.5,0,0,0,5.1-2.4,11.4,11.4,0,0,0,3.4-3.9,9.9,9.9,0,0,0-3.1-12.9,24.4,24.4,0,0,0-5.4-2.7,71.8,71.8,0,0,0-8.5-2.7,111,111,0,0,1-13.7-4.8,25.3,25.3,0,0,1-8.5-5.7,17.3,17.3,0,0,1-3.3-5.7,18.7,18.7,0,0,1-1.1-6.8,19,19,0,0,1,1.9-8.6,22.2,22.2,0,0,1,5.6-7,24.5,24.5,0,0,1,8.6-4.6,35.7,35.7,0,0,1,10.6-1.5,43,43,0,0,1,10.7,1.4,36.7,36.7,0,0,1,9.9,4.3,35.9,35.9,0,0,1,7.8,6.6l-6.8,7.4a31.6,31.6,0,0,0-6.2-5.3,28.3,28.3,0,0,0-7.1-3.7,22.7,22.7,0,0,0-7.7-1.3,22.2,22.2,0,0,0-6.5.9,16.7,16.7,0,0,0-5.2,2.4,10.2,10.2,0,0,0-3.2,3.7,10.1,10.1,0,0,0-1.1,4.9,8.7,8.7,0,0,0,.9,4,7.9,7.9,0,0,0,2.5,3,21.9,21.9,0,0,0,5.8,3.1c2.5.9,5.6,1.8,9.3,2.8a99.4,99.4,0,0,1,10.9,3.6,29.7,29.7,0,0,1,7.5,4.4,16.8,16.8,0,0,1,5.6,6.7,20.5,20.5,0,0,1,1.7,8.7,19.4,19.4,0,0,1-3.6,11.5,24.3,24.3,0,0,1-9.9,7.8A34.6,34.6,0,0,1,773.8,194.7Z"/><path class="cls-1" d="M827.4,99.9c-2.7,0-4.8-.7-6.2-2.2a7.8,7.8,0,0,1-2.1-5.8,7.6,7.6,0,0,1,2.2-5.8,8,8,0,0,1,6.1-2.2c2.7,0,4.8.7,6.2,2.1a8.9,8.9,0,0,1,0,11.7A8.5,8.5,0,0,1,827.4,99.9ZM822,193.2V116.5h11v76.7Z"/><path class="cls-1" d="M882.3,194.7a40.3,40.3,0,0,1-17.7-3.7,31.7,31.7,0,0,1-12.3-9.7l7.8-6.7a27.5,27.5,0,0,0,10,7.7,31,31,0,0,0,13.1,2.7,27.1,27.1,0,0,0,6.6-.8,20,20,0,0,0,5.1-2.4,11.4,11.4,0,0,0,3.4-3.9,9.9,9.9,0,0,0-3.1-12.9,26.9,26.9,0,0,0-5.4-2.7,68.2,68.2,0,0,0-8.6-2.7,114.9,114.9,0,0,1-13.6-4.8,25.8,25.8,0,0,1-8.6-5.7,21.7,21.7,0,0,1-3.3-5.7,21.1,21.1,0,0,1-1.1-6.8,19.1,19.1,0,0,1,2-8.6,20.9,20.9,0,0,1,5.6-7,24.9,24.9,0,0,1,8.5-4.6,36.9,36.9,0,0,1,10.7-1.5,43,43,0,0,1,10.7,1.4,38.1,38.1,0,0,1,9.9,4.3,35.9,35.9,0,0,1,7.8,6.6l-6.8,7.4a34.8,34.8,0,0,0-6.2-5.3,28.3,28.3,0,0,0-7.1-3.7,22.7,22.7,0,0,0-7.7-1.3,22.9,22.9,0,0,0-6.6.9,17.2,17.2,0,0,0-5.1,2.4,10.2,10.2,0,0,0-3.2,3.7,10.1,10.1,0,0,0-1.1,4.9,8.1,8.1,0,0,0,3.3,7,23.6,23.6,0,0,0,5.8,3.1c2.5.9,5.7,1.8,9.4,2.8a107.1,107.1,0,0,1,10.9,3.6,29.7,29.7,0,0,1,7.5,4.4,16.8,16.8,0,0,1,5.6,6.7,22.1,22.1,0,0,1,1.7,8.7,19.4,19.4,0,0,1-3.6,11.5,24.3,24.3,0,0,1-9.9,7.8A34.6,34.6,0,0,1,882.3,194.7Z"/><polygon class="cls-2" points="194.9 196.7 121.4 3.8 78.5 3.8 148.5 196.7 194.9 196.7"/><polygon class="cls-3" points="2.9 196.7 76.4 3.8 119.3 3.8 49.3 196.7 2.9 196.7"/></g></g></svg>